<?xml version="1.0" standalone="no"?><!DOCTYPE svg PUBLIC "-//W3C//DTD SVG 1.1//EN" "http://www.w3.org/Graphics/SVG/1.1/DTD/svg11.dtd" ><svg xmlns="http://www.w3.org/2000/svg"><metadata>Generated by Glyphter</metadata><defs><font id="mwv_icons" horiz-adv-x="0"><font-face units-per-em="512" ascent="512" descent="0" font-family="mwv_icons" font-weight="normal" /><missing-glyph horiz-adv-x="0" /><glyph unicode="&#x0041;" d="M469.333,455.222C469.333,455.222,42.667,455.222,42.667,455.222C19.111,455.222,0,436.111,0,412.556C0,412.556,0,99.667,0,99.667C0,76.111,19.111,57,42.667,57C42.667,57,469.333,57,469.333,57C492.889,57,512,76.111,512,99.667C512,99.667,512,412.556,512,412.556C512,436.111,492.889,455.222,469.333,455.222C469.333,455.222,469.333,455.222,469.333,455.222M469.333,99.667C469.333,99.667,42.667,99.667,42.667,99.667C42.667,99.667,42.667,412.556,42.667,412.556C42.667,412.556,469.333,412.556,469.333,412.556C469.333,412.556,469.333,99.667,469.333,99.667C469.333,99.667,469.333,99.667,469.333,99.667M184.889,256.111C216.267,256.111,241.778,281.622,241.778,313C241.778,344.378,216.267,369.889,184.889,369.889C153.511,369.889,128,344.378,128,313C128,281.622,153.511,256.111,184.889,256.111C184.889,256.111,184.889,256.111,184.889,256.111M105.244,142.333C105.244,142.333,264.533,142.333,264.533,142.333C275.556,142.333,284.444,149.978,284.444,159.4C284.444,159.4,284.444,176.467,284.444,176.467C284.444,204.733,257.689,227.667,224.711,227.667C215.111,227.667,208.089,220.556,184.889,220.556C160.978,220.556,155.2,227.667,145.067,227.667C112.089,227.667,85.333,204.733,85.333,176.467C85.333,176.467,85.333,159.4,85.333,159.4C85.333,149.978,94.222,142.333,105.244,142.333C105.244,142.333,105.244,142.333,105.244,142.333M320,199.222C320,199.222,419.556,199.222,419.556,199.222C423.467,199.222,426.667,202.422,426.667,206.333C426.667,206.333,426.667,220.556,426.667,220.556C426.667,224.467,423.467,227.667,419.556,227.667C419.556,227.667,320,227.667,320,227.667C316.089,227.667,312.889,224.467,312.889,220.556C312.889,220.556,312.889,206.333,312.889,206.333C312.889,202.422,316.089,199.222,320,199.222C320,199.222,320,199.222,320,199.222M320,256.111C320,256.111,419.556,256.111,419.556,256.111C423.467,256.111,426.667,259.311,426.667,263.222C426.667,263.222,426.667,277.444,426.667,277.444C426.667,281.356,423.467,284.556,419.556,284.556C419.556,284.556,320,284.556,320,284.556C316.089,284.556,312.889,281.356,312.889,277.444C312.889,277.444,312.889,263.222,312.889,263.222C312.889,259.311,316.089,256.111,320,256.111C320,256.111,320,256.111,320,256.111M320,313C320,313,419.556,313,419.556,313C423.467,313,426.667,316.2,426.667,320.111C426.667,320.111,426.667,334.333,426.667,334.333C426.667,338.244,423.467,341.444,419.556,341.444C419.556,341.444,320,341.444,320,341.444C316.089,341.444,312.889,338.244,312.889,334.333C312.889,334.333,312.889,320.111,312.889,320.111C312.889,316.2,316.089,313,320,313C320,313,320,313,320,313" class="mwv_icon-address-card"/><glyph unicode="&#x0042;" d="M327.868,494.035C327.868,494.035,327.868,449.123,327.868,449.123C327.868,439.201,319.826,431.158,309.904,431.158C309.904,431.158,22.465,431.158,22.465,431.158C12.543,431.158,4.5,439.201,4.5,449.123C4.5,449.123,4.5,494.035,4.5,494.035C4.5,503.957,12.543,512,22.465,512C22.465,512,309.904,512,309.904,512C319.826,512,327.868,503.957,327.868,494.035C327.868,494.035,327.868,494.035,327.868,494.035M4.5,350.316C4.5,350.316,4.5,305.404,4.5,305.404C4.5,295.481,12.543,287.439,22.465,287.439C22.465,287.439,489.553,287.439,489.553,287.439C499.475,287.439,507.518,295.481,507.518,305.404C507.518,305.404,507.518,350.316,507.518,350.316C507.518,360.238,499.475,368.281,489.553,368.281C489.553,368.281,22.465,368.281,22.465,368.281C12.543,368.281,4.5,360.238,4.5,350.316C4.5,350.316,4.5,350.316,4.5,350.316M22.465,0C22.465,0,489.553,0,489.553,0C499.475,0,507.518,8.043,507.518,17.965C507.518,17.965,507.518,62.877,507.518,62.877C507.518,72.799,499.475,80.842,489.553,80.842C489.553,80.842,22.465,80.842,22.465,80.842C12.543,80.842,4.5,72.799,4.5,62.877C4.5,62.877,4.5,17.965,4.5,17.965C4.5,8.043,12.543,0,22.465,0C22.465,0,22.465,0,22.465,0M309.904,224.561C309.904,224.561,22.465,224.561,22.465,224.561C12.543,224.561,4.5,216.519,4.5,206.596C4.5,206.596,4.5,161.684,4.5,161.684C4.5,151.762,12.543,143.719,22.465,143.719C22.465,143.719,309.904,143.719,309.904,143.719C319.826,143.719,327.868,151.762,327.868,161.684C327.868,161.684,327.868,206.596,327.868,206.596C327.868,216.519,319.826,224.561,309.904,224.561C309.904,224.561,309.904,224.561,309.904,224.561" class="mwv_icon-align-left"/><glyph unicode="&#x0043;" d="M224,448C224,479,256,471,256,512C268,512,288,482.5,288,456C288,429.5,273.75,416,256,416C238.25,416,224,430.25,224,448C224,448,224,448,224,448M384,416C401.75,416,416,429.5,416,456C416,482.5,396,512,384,512C384,471,352,479,352,448C352,430.25,366.25,416,384,416C384,416,384,416,384,416M480,240C480,240,480,0,480,0C480,0,32,0,32,0C32,0,32,240,32,240C32,266.5,53.5,288,80,288C80,288,104,288,104,288C104,288,104,400,104,400C104,400,152,400,152,400C152,400,152,288,152,288C152,288,232,288,232,288C232,288,232,400,232,400C232,400,280,400,280,400C280,400,280,288,280,288C280,288,360,288,360,288C360,288,360,400,360,400C360,400,408,400,408,400C408,400,408,288,408,288C408,288,432,288,432,288C458.5,288,480,266.5,480,240C480,240,480,240,480,240M80,234C80,234,80,177.169,80,177.169C88.352,170.169,95.27,164,106.75,164C132.128,164,136.88,196,181.5,196C225.474,196,231.254,164,256,164C281.588,164,286.061,196,330.75,196C375.223,196,380.079,164,405.5,164C416.758,164,423.635,170.18,432,177.187C432,177.187,432,233.992,432,233.992C432,237.306,429.314,239.992,426,239.992C426,239.992,86,240,86,240C82.686,240,80,237.314,80,234C80,234,80,234,80,234M432,48C432,48,432,128.87,432,128.87C424.999,125.956,416.46,124,405.5,124C360.956,124,356.111,156,330.75,156C305.606,156,300.421,124,256,124C212.026,124,206.245,156,181.5,156C155.913,156,151.438,124,106.75,124C95.666,124,87.052,125.974,80,128.911C80,128.911,80,48,80,48C80,48,432,48,432,48C432,48,432,48,432,48M128,416C145.75,416,160,429.5,160,456C160,482.5,140,512,128,512C128,471,96,479,96,448C96,430.25,110.25,416,128,416C128,416,128,416,128,416" class="mwv_icon-birthday-cake"/><glyph unicode="&#x0044;" d="M489.699,256.573C530.74,296.746,513.962,359.063,458.554,373.207C473.93,427.211,428.435,474.5,373.089,458.725C358.91,514.328,295.846,530.415,256.5,489.879C242.945,503.845,227.454,512.481,206.206,512.482C176.818,512.483,149.062,494.614,139.911,458.725C84.961,474.388,38.935,427.683,54.446,373.207C-0.849,359.092,-17.828,296.833,23.301,256.573C-17.645,216.493,-1.066,154.109,54.446,139.939C38.934,85.458,85.036,38.781,139.911,54.421C154.247,-1.8,216.934,-17.214,256.5,23.25C296.011,-17.158,358.826,-1.509,373.089,54.421C428.096,38.743,474.026,85.598,458.554,139.939C513.849,154.054,530.828,216.313,489.699,256.573C489.699,256.573,489.699,256.573,489.699,256.573M458.494,219.999C469.627,209.46,464.444,190.719,449.829,187.224C449.829,187.224,398.926,174.232,398.926,174.232C398.926,174.232,413.275,123.845,413.275,123.845C417.33,109.354,403.668,95.68,389.176,99.737C389.176,99.737,338.806,114.091,338.806,114.091C338.806,114.091,325.819,63.171,325.819,63.171C322.294,48.421,303.211,43.545,293.055,54.503C293.055,54.503,256.5,91.879,256.5,91.879C256.5,91.879,219.946,54.503,219.946,54.503C209.683,43.654,190.788,48.082,187.182,63.171C187.182,63.171,174.195,114.091,174.195,114.091C174.195,114.091,123.825,99.737,123.825,99.737C109.336,95.681,95.671,109.352,99.726,123.845C99.726,123.845,114.075,174.232,114.075,174.232C114.075,174.232,63.172,187.224,63.172,187.224C48.563,190.718,43.369,209.455,54.507,219.999C54.507,219.999,91.87,256.565,91.87,256.565C91.87,256.565,54.507,293.131,54.507,293.131C43.374,303.67,48.557,322.411,63.172,325.906C63.172,325.906,114.075,338.898,114.075,338.898C114.075,338.898,99.726,389.285,99.726,389.285C95.672,403.775,109.331,417.451,123.825,413.393C123.825,413.393,174.195,399.039,174.195,399.039C174.195,399.039,187.182,449.959,187.182,449.959C190.658,464.505,209.685,469.473,219.946,458.627C219.946,458.627,256.5,420.975,256.5,420.975C256.5,420.975,293.054,458.627,293.054,458.627C303.436,469.601,322.382,464.337,325.818,449.959C325.818,449.959,338.805,399.039,338.805,399.039C338.805,399.039,389.175,413.393,389.175,413.393C403.663,417.449,417.329,403.778,413.274,389.285C413.274,389.285,398.925,338.898,398.925,338.898C398.925,338.898,449.828,325.906,449.828,325.906C464.437,322.412,469.63,303.675,458.493,293.131C458.493,293.131,421.13,256.565,421.13,256.565C421.13,256.565,458.494,219.999,458.494,219.999C458.494,219.999,458.494,219.999,458.494,219.999" class="mwv_icon-certificate"/><glyph unicode="&#x0045;" d="M256.033,480.442C114.652,480.442,0.066,387.354,0.066,272.469C0.066,224.875,19.964,181.281,52.96,146.185C38.061,106.79,7.065,73.395,6.566,72.995C-0.034,65.996,-1.833,55.797,1.966,46.998C5.766,38.199,14.464,32.5,24.063,32.5C85.555,32.5,134.049,58.197,163.145,78.794C192.041,69.695,223.237,64.496,256.033,64.496C397.415,64.496,512,157.584,512,272.469C512,387.354,397.415,480.442,256.033,480.442C256.033,480.442,256.033,480.442,256.033,480.442M256.033,112.49C229.337,112.49,202.94,116.589,177.643,124.588C177.643,124.588,154.946,131.787,154.946,131.787C154.946,131.787,135.449,117.989,135.449,117.989C121.151,107.89,101.553,96.592,77.956,88.993C85.255,101.091,92.354,114.689,97.854,129.187C97.854,129.187,108.452,157.284,108.452,157.284C108.452,157.284,87.855,179.081,87.855,179.081C69.757,198.378,48.06,230.274,48.06,272.469C48.06,360.657,141.348,432.448,256.033,432.448C370.718,432.448,464.006,360.657,464.006,272.469C464.006,184.28,370.718,112.49,256.033,112.49C256.033,112.49,256.033,112.49,256.033,112.49" class="mwv_icon-comment"/><glyph unicode="&#x0046;" d="M469.244,455.222C469.244,455.222,42.756,455.222,42.756,455.222C19.111,455.222,0,436.111,0,412.556C0,412.556,0,99.667,0,99.667C0,76.111,19.111,57,42.756,57C42.756,57,469.244,57,469.244,57C492.889,57,512,76.111,512,99.667C512,99.667,512,412.556,512,412.556C512,436.111,492.889,455.222,469.244,455.222C469.244,455.222,469.244,455.222,469.244,455.222M48.089,412.556C48.089,412.556,463.911,412.556,463.911,412.556C466.844,412.556,469.244,410.156,469.244,407.222C469.244,407.222,469.244,369.889,469.244,369.889C469.244,369.889,42.756,369.889,42.756,369.889C42.756,369.889,42.756,407.222,42.756,407.222C42.756,410.156,45.156,412.556,48.089,412.556C48.089,412.556,48.089,412.556,48.089,412.556M463.911,99.667C463.911,99.667,48.089,99.667,48.089,99.667C45.156,99.667,42.756,102.067,42.756,105C42.756,105,42.756,256.111,42.756,256.111C42.756,256.111,469.244,256.111,469.244,256.111C469.244,256.111,469.244,105,469.244,105C469.244,102.067,466.844,99.667,463.911,99.667C463.911,99.667,463.911,99.667,463.911,99.667M170.667,188.556C170.667,188.556,170.667,153,170.667,153C170.667,147.133,165.867,142.333,160,142.333C160,142.333,96,142.333,96,142.333C90.133,142.333,85.333,147.133,85.333,153C85.333,153,85.333,188.556,85.333,188.556C85.333,194.422,90.133,199.222,96,199.222C96,199.222,160,199.222,160,199.222C165.867,199.222,170.667,194.422,170.667,188.556C170.667,188.556,170.667,188.556,170.667,188.556M341.333,188.556C341.333,188.556,341.333,153,341.333,153C341.333,147.133,336.533,142.333,330.667,142.333C330.667,142.333,209.778,142.333,209.778,142.333C203.911,142.333,199.111,147.133,199.111,153C199.111,153,199.111,188.556,199.111,188.556C199.111,194.422,203.911,199.222,209.778,199.222C209.778,199.222,330.667,199.222,330.667,199.222C336.533,199.222,341.333,194.422,341.333,188.556C341.333,188.556,341.333,188.556,341.333,188.556" class="mwv_icon-credit-card"/><glyph unicode="&#x0047;" d="M464,448C464,448,48,448,48,448C21.49,448,0,426.51,0,400C0,400,0,112,0,112C0,85.49,21.49,64,48,64C48,64,464,64,464,64C490.51,64,512,85.49,512,112C512,112,512,400,512,400C512,426.51,490.51,448,464,448C464,448,464,448,464,448M464,400C464,400,464,359.195,464,359.195C441.578,340.936,405.832,312.544,329.413,252.705C312.572,239.458,279.212,207.633,256,208.004C232.792,207.629,199.421,239.463,182.587,252.705C106.18,312.535,70.425,340.933,48,359.195C48,359.195,48,400,48,400C48,400,464,400,464,400C464,400,464,400,464,400M48,112C48,112,48,297.602,48,297.602C70.914,279.351,103.409,253.74,152.938,214.956C174.795,197.751,213.072,159.77,256,160.001C298.717,159.77,336.509,197.2,359.053,214.948C408.581,253.731,441.085,279.349,464,297.601C464,297.601,464,112,464,112C464,112,48,112,48,112C48,112,48,112,48,112" class="mwv_icon-envelope"/><glyph unicode="&#x0048;" d="M336,80C336,35.888,300.112,0,256,0C211.888,0,176,35.888,176,80C176,124.112,211.888,160,256,160C300.112,160,336,124.112,336,80C336,80,336,80,336,80M185.26,486.801C185.26,486.801,198.86,214.801,198.86,214.801C199.499,202.028,210.041,192,222.83,192C222.83,192,289.17,192,289.17,192C301.959,192,312.501,202.028,313.14,214.801C313.14,214.801,326.74,486.801,326.74,486.801C327.425,500.51,316.496,512,302.77,512C302.77,512,209.23,512,209.23,512C195.504,512,184.575,500.51,185.26,486.801C185.26,486.801,185.26,486.801,185.26,486.801" class="mwv_icon-exclamation"/><glyph unicode="&#x0049;" d="M200.7,0C200.7,0,200.7,229,200.7,229C200.7,229,124,229,124,229C124,229,124,320,124,320C124,320,200.7,320,200.7,320C200.7,320,200.7,391.7,200.7,391.7C200.7,469.6,248.3,512,317.8,512C351.1,512,379.7,509.5,388,508.4C388,508.4,388,427,388,427C388,427,339.8,427,339.8,427C302,427,294.7,409,294.7,382.7C294.7,382.7,294.7,320,294.7,320C294.7,320,380,320,380,320C380,320,368.3,229,368.3,229C368.3,229,294.7,229,294.7,229C294.7,229,294.7,0,294.7,0" class="mwv_icon-facebook-f"/><glyph unicode="&#x004a;" d="M397.121,180.486C397.121,180.486,349.082,319.53,349.082,319.53C345.625,329.735,339.645,338.9,331.696,346.173C347.12,363.774,356.484,386.813,356.484,412C356.484,467.14,311.624,512,256.484,512C201.344,512,156.484,467.14,156.484,412C156.484,386.813,165.848,363.774,181.273,346.172C173.323,338.898,167.342,329.731,163.885,319.525C163.885,319.525,115.955,180.839,115.955,180.839C101.71,138.03,133.402,96,176.499,96C176.499,96,176.485,64,176.485,64C176.485,28.71,205.195,0,240.485,0C240.485,0,272.485,0,272.485,0C307.775,0,336.485,28.71,336.485,64C336.485,64,336.499,96,336.499,96C380.509,96.246,410.98,138.859,397.121,180.486C397.121,180.486,397.121,180.486,397.121,180.486M256.485,464C285.204,464,308.485,440.719,308.485,412C308.485,383.281,285.204,360,256.485,360C227.766,360,204.485,383.281,204.485,412C204.485,440.719,227.766,464,256.485,464C256.485,464,256.485,464,256.485,464M336.114,144C336.114,144,288.485,144,288.485,144C288.485,144,288.485,64,288.485,64C288.485,55.163,281.321,48,272.485,48C272.485,48,240.485,48,240.485,48C231.648,48,224.485,55.163,224.485,64C224.485,64,224.485,144,224.485,144C224.485,144,176.485,144,176.485,144C165.949,144,157.692,154.217,161.423,165.412C161.423,165.412,209.306,304,209.306,304C211.484,310.533,217.598,314.94,224.485,314.94C224.485,314.94,232.395,314.94,232.395,314.94C248.216,311.018,264.754,311.018,280.575,314.94C280.575,314.94,288.485,314.94,288.485,314.94C295.372,314.94,301.486,310.533,303.664,304C303.664,304,351.664,165.06,351.664,165.06C354.992,155.074,347.925,144,336.114,144C336.114,144,336.114,144,336.114,144" class="mwv_icon-female"/><glyph unicode="&#x004b;" d="M464.452,512C464.452,512,48.557,512,48.557,512C5.919,512,-15.594,460.269,14.616,430.059C14.616,430.059,176.5,268.118,176.5,268.118C176.5,268.118,176.5,96,176.5,96C176.5,80.892,183.613,66.665,195.7,56C195.7,56,259.7,8.934,259.7,8.934C290.973,-12.921,336.5,7.396,336.5,47.334C336.5,47.334,336.5,268.118,336.5,268.118C336.5,268.118,498.393,430.059,498.393,430.059C528.542,460.208,507.175,512,464.452,512C464.452,512,464.452,512,464.452,512M288.5,288C288.5,288,288.5,48,288.5,48C288.5,48,224.5,96,224.5,96C224.5,96,224.5,288,224.5,288C224.5,288,48.5,464,48.5,464C48.5,464,464.5,464,464.5,464C464.5,464,288.5,288,288.5,288C288.5,288,288.5,288,288.5,288" class="mwv_icon-filter"/><glyph unicode="&#x004c;" d="M336.674,432.5C287.542,432.5,243.369,464.5,174.761,464.5C143.46,464.5,116.458,458.018,94.04,449.332C96.262,456.001,96.993,463.076,96.182,470.059C93.567,492.925,74.667,510.906,51.701,512.396C23.742,514.21,0.5,492.069,0.5,464.5C0.5,446.736,10.157,431.238,24.5,422.938C24.5,422.938,24.5,16.5,24.5,16.5C24.5,7.663,31.663,0.5,40.5,0.5C40.5,0.5,56.5,0.5,56.5,0.5C65.337,0.5,72.5,7.663,72.5,16.5C72.5,16.5,72.5,99.943,72.5,99.943C110.369,117.22,143.759,128.5,200.326,128.5C249.458,128.5,293.631,96.5,362.239,96.5C420.718,96.5,464.211,119.117,490.787,136.481C504.346,145.339,512.5,160.449,512.5,176.645C512.5,176.645,512.5,416.563,512.5,416.563C512.5,451.022,477.236,474.331,445.596,460.68C409.693,445.191,372.141,432.5,336.674,432.5C336.674,432.5,336.674,432.5,336.674,432.5M464.5,176.5C442.717,161.088,403.676,144.5,362.239,144.5C302.294,144.5,260.237,176.5,200.326,176.5C156.965,176.5,103.947,167.097,72.5,152.5C72.5,152.5,72.5,384.5,72.5,384.5C94.284,399.912,133.324,416.5,174.761,416.5C234.706,416.5,276.763,384.5,336.674,384.5C379.945,384.5,432.994,401.866,464.5,416.5C464.5,416.5,464.5,176.5,464.5,176.5C464.5,176.5,464.5,176.5,464.5,176.5" class="mwv_icon-flag"/><glyph unicode="&#x004d;" d="M485.704,342.754C485.704,342.754,281.711,405.939,281.711,405.939C281.711,405.939,281.462,406.014,281.462,406.014C264.843,410.929,247.157,410.929,230.538,406.014C230.538,406.014,26.29,342.752,26.29,342.752C10.804,338.074,0,323.513,0,307.3C0,291.087,10.804,276.526,26.29,271.848C26.29,271.848,40.338,267.497,40.338,267.497C39.53,262.854,39.042,258.005,38.772,252.881C30.917,248.509,25.6,240.127,25.6,230.5C25.6,220.938,30.846,212.607,38.612,208.211C38.612,208.211,25.654,109.735,25.654,109.735C25.15,105.902,28.138,102.5,32,102.5C32,102.5,70.4,102.5,70.4,102.5C74.266,102.5,77.25,105.906,76.746,109.735C76.746,109.735,63.788,208.211,63.788,208.211C71.554,212.607,76.8,220.938,76.8,230.5C76.8,239.816,71.822,247.968,64.383,252.446C64.536,255.035,64.746,257.49,65.045,259.842C65.045,259.842,105.577,247.286,105.577,247.286C100.987,216.646,96,183.079,96,181.86C96,129.282,203.394,117.604,256,117.604C308.6,117.604,416,129.278,416,181.86C416,183.49,411.021,216.726,406.414,247.284C406.414,247.284,485.704,271.846,485.704,271.846C501.193,276.522,512,291.085,512,307.3C512,323.515,501.193,338.078,485.704,342.754C485.704,342.754,485.704,342.754,485.704,342.754M377.295,182.458C365.856,168.582,313.157,156.004,256,156.004C218.246,156.004,150.048,163.849,134.704,182.458C134.704,182.458,142.703,235.785,142.703,235.785C142.703,235.785,230.289,208.653,230.289,208.653C230.289,208.653,230.538,208.577,230.538,208.577C238.806,206.135,247.38,204.894,256,204.892C264.62,204.894,273.194,206.135,281.462,208.577C281.462,208.577,369.296,235.786,369.296,235.786C369.296,235.786,377.295,182.458,377.295,182.458C377.295,182.458,377.295,182.458,377.295,182.458M270.486,245.376C261.029,242.604,250.976,242.603,241.519,245.374C241.519,245.374,38.4,307.3,38.4,307.3C38.4,307.3,241.512,369.223,241.512,369.223C250.97,371.998,261.026,371.998,270.485,369.224C270.485,369.224,473.6,307.3,473.6,307.3C473.6,307.3,270.486,245.376,270.486,245.376C270.486,245.376,270.486,245.376,270.486,245.376" class="mwv_icon-graduation-cap"/><glyph unicode="&#x004e;" d="M237.181,263.992C248.738,252.079,266.073,254.924,274.874,263.992C274.874,263.992,362.616,354.668,362.616,354.668C389.375,382.315,394.975,434.765,357.282,466.947C323.145,496.105,278.074,482.77,256.027,460.013C233.98,482.77,188.909,496.105,154.861,466.947C117.168,434.765,122.769,382.315,149.527,354.668C149.527,354.668,237.181,263.992,237.181,263.992C237.181,263.992,237.181,263.992,237.181,263.992M181.797,434.232C194.332,444.9,213.889,442.233,225.624,430.054C225.624,430.054,256.027,398.673,256.027,398.673C256.027,398.673,286.342,430.143,286.342,430.143C298.076,442.322,317.723,444.989,330.168,434.321C346.97,420.008,344.125,396.628,332.569,384.627C332.569,384.627,256.027,305.418,256.027,305.418C256.027,305.418,179.486,384.627,179.486,384.627C167.84,396.539,165.084,419.919,181.797,434.232C181.797,434.232,181.797,434.232,181.797,434.232M490.63,206.297C462.983,229.766,429.023,220.609,412.044,207.897C412.044,207.897,358.349,167.448,358.349,167.448C358.349,167.448,355.416,167.448,355.416,167.448C355.238,201.229,328.302,227.721,293.898,227.721C293.898,227.721,165.884,227.721,165.884,227.721C140.637,227.721,115.835,219.365,96.099,204.341C96.099,204.341,70.941,184.961,70.941,184.961C70.941,184.961,14.224,184.961,14.224,184.961C6.401,184.961,0,178.56,0,170.737C0,170.737,0,156.514,0,156.514C0,148.691,6.401,142.29,14.224,142.29C14.224,142.29,85.342,142.29,85.342,142.29C85.342,142.29,122.057,170.293,122.057,170.293C134.503,179.805,149.971,184.961,165.973,184.961C165.973,184.961,293.987,184.961,293.987,184.961C318.789,184.961,319.856,149.224,293.009,149.224C293.009,149.224,239.848,149.224,239.848,149.224C233.091,149.224,227.58,143.712,227.58,136.956C227.58,136.956,227.58,136.867,227.58,136.867C227.58,130.111,233.091,124.599,239.848,124.599C239.848,124.599,359.416,124.599,359.416,124.599C368.039,124.599,376.484,127.444,383.33,132.6C383.33,132.6,437.824,173.582,437.824,173.582C445.203,179.094,456.048,179.538,463.071,173.582C472.05,166.026,471.339,153.047,462.271,146.29C462.271,146.29,372.84,79.172,372.84,79.172C365.906,74.016,357.549,71.171,348.926,71.171C348.926,71.171,14.224,71.171,14.224,71.171C6.401,71.171,0,64.771,0,56.947C0,56.947,0,42.724,0,42.724C0,34.901,6.401,28.5,14.224,28.5C14.224,28.5,349.193,28.5,349.193,28.5C366.883,28.5,384.13,34.278,398.265,44.946C398.265,44.946,487.874,112.42,487.874,112.42C502.631,123.532,511.432,140.423,511.966,158.647C512.588,176.871,504.765,194.295,490.63,206.297C490.63,206.297,490.63,206.297,490.63,206.297" class="mwv_icon-hand-holding-heart"/><glyph unicode="&#x004f;" d="M458.4,447.8C400.6,496.4,311.3,489.1,256,432.8C200.7,489.1,111.4,496.5,53.6,447.8C-21.6,384.5,-10.6,281.3,43,226.6C43,226.6,218.4,47.9,218.4,47.9C228.4,37.7,241.8,32,256,32C270.3,32,283.6,37.6,293.6,47.8C293.6,47.8,469,226.5,469,226.5C522.5,281.2,533.7,384.4,458.4,447.8C458.4,447.8,458.4,447.8,458.4,447.8M434.8,260.3C434.8,260.3,259.4,81.6,259.4,81.6C257,79.2,255,79.2,252.6,81.6C252.6,81.6,77.2,260.3,77.2,260.3C40.7,297.5,33.3,367.9,84.5,411C123.4,443.7,183.4,438.8,221,400.5C221,400.5,256,364.8,256,364.8C256,364.8,291,400.5,291,400.5C328.8,439,388.8,443.7,427.5,411.1C478.6,368,471,297.2,434.8,260.3C434.8,260.3,434.8,260.3,434.8,260.3" class="mwv_icon-heart"/><glyph unicode="&#x0050;" d="M266.452,84.298C260.651,78.597,251.349,78.597,245.548,84.298C245.548,84.298,136.727,192.019,136.727,192.019C136.727,192.019,68.513,192.019,68.513,192.019C68.513,192.019,211.841,50.191,211.841,50.191C236.346,25.986,275.754,25.886,300.259,50.191C300.259,50.191,443.587,192.019,443.587,192.019C443.587,192.019,375.373,192.019,375.373,192.019C375.373,192.019,266.452,84.298,266.452,84.298C266.452,84.298,266.452,84.298,266.452,84.298M354.769,480.075C318.262,480.075,283.755,467.773,256.05,445.168C228.345,467.773,193.838,480.075,157.331,480.075C86.217,480.075,0,423.164,0,324.045C0,286.737,13.703,251.93,37.807,224.025C37.807,224.025,154.63,224.025,154.63,224.025C154.63,224.025,184.536,295.739,184.536,295.739C184.536,295.739,241.447,169.414,241.447,169.414C246.948,157.112,264.352,156.712,270.353,168.814C270.353,168.814,320.062,268.234,320.062,268.234C320.062,268.234,342.167,224.025,342.167,224.025C342.167,224.025,474.193,224.025,474.193,224.025C498.297,251.93,512,286.737,512,324.045C512.1,423.164,425.883,480.075,354.769,480.075C354.769,480.075,354.769,480.075,354.769,480.075M438.686,256.031C438.686,256.031,361.971,256.031,361.971,256.031C361.971,256.031,334.365,311.242,334.365,311.242C328.464,323.044,311.661,323.044,305.76,311.242C305.76,311.242,256.85,213.323,256.85,213.323C256.85,213.323,198.639,342.648,198.639,342.648C192.938,355.451,174.634,355.151,169.233,342.248C169.233,342.248,133.326,256.031,133.326,256.031C133.326,256.031,73.414,256.031,73.414,256.031C14.603,325.545,66.413,432.066,157.331,432.066C188.337,432.066,208.341,425.864,256.05,378.655C307.16,429.165,325.163,432.066,354.769,432.066C445.987,432.066,497.497,325.545,438.686,256.031C438.686,256.031,438.686,256.031,438.686,256.031" class="mwv_icon-heartbeat"/><glyph unicode="&#x0051;" d="M256,512C114.625,512,0,397.334,0,256C0,114.584,114.625,0,256,0C397.375,0,512,114.584,512,256C512,397.334,397.375,512,256,512C256,512,256,512,256,512M256,398.452C279.944,398.452,299.355,379.041,299.355,355.097C299.355,331.153,279.944,311.742,256,311.742C232.056,311.742,212.645,331.153,212.645,355.097C212.645,379.041,232.056,398.452,256,398.452C256,398.452,256,398.452,256,398.452M313.806,136.258C313.806,129.417,308.26,123.871,301.419,123.871C301.419,123.871,210.581,123.871,210.581,123.871C203.74,123.871,198.194,129.417,198.194,136.258C198.194,136.258,198.194,161.032,198.194,161.032C198.194,167.873,203.74,173.419,210.581,173.419C210.581,173.419,222.968,173.419,222.968,173.419C222.968,173.419,222.968,239.484,222.968,239.484C222.968,239.484,210.581,239.484,210.581,239.484C203.74,239.484,198.194,245.03,198.194,251.871C198.194,251.871,198.194,276.645,198.194,276.645C198.194,283.486,203.74,289.032,210.581,289.032C210.581,289.032,276.645,289.032,276.645,289.032C283.486,289.032,289.032,283.486,289.032,276.645C289.032,276.645,289.032,173.419,289.032,173.419C289.032,173.419,301.419,173.419,301.419,173.419C308.26,173.419,313.806,167.873,313.806,161.032C313.806,161.032,313.806,136.258,313.806,136.258C313.806,136.258,313.806,136.258,313.806,136.258" class="mwv_icon-info-circle"/><glyph unicode="&#x0052;" d="M256.057,387.684C183.412,387.684,124.816,329.088,124.816,256.443C124.816,183.798,183.412,125.202,256.057,125.202C328.702,125.202,387.298,183.798,387.298,256.443C387.298,329.088,328.702,387.684,256.057,387.684C256.057,387.684,256.057,387.684,256.057,387.684M256.057,171.119C209.112,171.119,170.733,209.383,170.733,256.443C170.733,303.502,208.998,341.767,256.057,341.767C303.117,341.767,341.381,303.502,341.381,256.443C341.381,209.383,303.002,171.119,256.057,171.119C256.057,171.119,256.057,171.119,256.057,171.119M423.278,393.052C423.278,376.033,409.571,362.441,392.667,362.441C375.648,362.441,362.055,376.148,362.055,393.052C362.055,409.957,375.762,423.664,392.667,423.664C409.571,423.664,423.278,409.957,423.278,393.052C423.278,393.052,423.278,393.052,423.278,393.052M510.201,361.984C508.259,402.99,498.893,439.312,468.853,469.238C438.926,499.165,402.604,508.531,361.598,510.587C319.336,512.985,192.664,512.985,150.402,510.587C109.51,508.645,73.188,499.279,43.147,469.353C13.107,439.426,3.855,403.104,1.799,362.098C-0.6,319.836,-0.6,193.164,1.799,150.902C3.741,109.896,13.107,73.574,43.147,43.647C73.188,13.721,109.396,4.355,150.402,2.299C192.664,-0.1,319.336,-0.1,361.598,2.299C402.604,4.241,438.926,13.607,468.853,43.647C498.779,73.574,508.145,109.896,510.201,150.902C512.6,193.164,512.6,319.722,510.201,361.984C510.201,361.984,510.201,361.984,510.201,361.984M455.603,105.556C446.694,83.168,429.446,65.921,406.944,56.897C373.249,43.533,293.293,46.617,256.057,46.617C218.821,46.617,138.751,43.647,105.17,56.897C82.782,65.806,65.535,83.054,56.511,105.556C43.147,139.251,46.231,219.207,46.231,256.443C46.231,293.679,43.262,373.749,56.511,407.33C65.421,429.718,82.668,446.965,105.17,455.989C138.865,469.353,218.821,466.269,256.057,466.269C293.293,466.269,373.363,469.238,406.944,455.989C429.332,447.079,446.579,429.832,455.603,407.33C468.967,373.635,465.883,293.679,465.883,256.443C465.883,219.207,468.967,139.137,455.603,105.556C455.603,105.556,455.603,105.556,455.603,105.556" class="mwv_icon-instagram"/><glyph unicode="&#x0053;" d="M339.421,356.921C349.892,372.727,356,391.662,356,412C356,467.14,311.14,512,256,512C200.86,512,156,467.14,156,412C156,391.662,162.108,372.727,172.579,356.921C146.005,342.015,128,313.576,128,281C128,281,128,192,128,192C128,165.961,143.629,143.506,166,133.521C166,133.521,166,64,166,64C166,28.71,194.71,0,230,0C230,0,282,0,282,0C317.29,0,346,28.71,346,64C346,64,346,133.521,346,133.521C368.371,143.505,384,165.961,384,192C384,192,384,281,384,281C384,313.576,365.995,342.015,339.421,356.921C339.421,356.921,339.421,356.921,339.421,356.921M256,464C284.719,464,308,440.719,308,412C308,383.281,284.719,360,256,360C227.281,360,204,383.281,204,412C204,440.719,227.281,464,256,464C256,464,256,464,256,464M336,192C336,183.2,328.8,176,320,176C320,176,298,176,298,176C298,176,298,64,298,64C298,55.163,290.837,48,282,48C282,48,230,48,230,48C221.163,48,214,55.163,214,64C214,64,214,176,214,176C214,176,192,176,192,176C183.163,176,176,183.163,176,192C176,192,176,281,176,281C176,300.793,191.074,320,216.818,320C241.779,309.329,270.218,309.328,295.182,320C320.552,320,336,301.115,336,281C336,281,336,192,336,192C336,192,336,192,336,192" class="mwv_icon-male"/><glyph unicode="&#x0054;" d="M497.796,455.222C496.053,455.222,494.258,454.893,492.498,454.191C492.498,454.191,341.342,398.333,341.342,398.333C341.342,398.333,341.333,398.333,341.333,398.333C341.333,398.333,188.444,452.307,188.444,452.307C182.642,454.236,176.568,455.22,170.453,455.222C164.507,455.222,158.569,454.289,152.844,452.431C152.844,452.431,17.884,405.489,17.884,405.489C7.085,401.17,0.003,390.711,0,379.08C0,379.08,0,71.24,0,71.24C0,63.071,6.693,57,14.213,57C15.956,57,17.742,57.329,19.511,58.031C19.511,58.031,170.667,113.889,170.667,113.889C170.667,113.889,323.556,59.924,323.556,59.924C335.102,56.071,347.58,56.025,359.156,59.791C359.156,59.791,494.116,106.733,494.116,106.733C504.916,111.051,512,121.51,512,133.142C512,133.142,512,440.982,512,440.982C512,449.151,505.307,455.222,497.796,455.222C497.796,455.222,497.796,455.222,497.796,455.222M199.111,403.293C199.111,403.293,312.889,363.124,312.889,363.124C312.889,363.124,312.889,108.929,312.889,108.929C312.889,108.929,199.111,149.098,199.111,149.098C199.111,149.098,199.111,403.293,199.111,403.293C199.111,403.293,199.111,403.293,199.111,403.293M42.667,112.067C42.667,112.067,42.667,368.938,42.667,368.938C42.667,368.938,156.444,408.52,156.444,408.52C156.444,408.52,156.444,154.12,156.444,154.12C156.444,154.12,155.876,153.916,155.876,153.916C155.876,153.916,42.667,112.067,42.667,112.067C42.667,112.067,42.667,112.067,42.667,112.067M469.333,143.293C469.333,143.293,355.556,103.711,355.556,103.711C355.556,103.711,355.556,358.102,355.556,358.102C355.556,358.102,356.124,358.316,356.124,358.316C356.124,358.316,469.333,400.156,469.333,400.156C469.333,400.156,469.333,143.293,469.333,143.293C469.333,143.293,469.333,143.293,469.333,143.293" class="mwv_icon-map"/><glyph unicode="&#x0055;" d="M236.768,10.33C91.47,220.969,64.5,242.587,64.5,320C64.5,426.039,150.461,512,256.5,512C362.539,512,448.5,426.039,448.5,320C448.5,242.587,421.53,220.969,276.232,10.33C266.697,-3.444,246.302,-3.443,236.768,10.33C236.768,10.33,236.768,10.33,236.768,10.33" class="mwv_icon-map-marker"/><glyph unicode="&#x0056;" d="M492.697,438.197C492.697,438.197,438.195,492.699,438.195,492.699C411.794,519.1,369.093,519.1,342.692,492.699C342.692,492.699,13.18,163.188,13.18,163.188C13.18,163.188,0.78,51.284,0.78,51.284C-2.42,22.083,22.281,-2.418,51.282,0.782C51.282,0.782,163.086,13.182,163.086,13.182C163.086,13.182,492.697,342.794,492.697,342.794C519.098,369.195,519.098,411.896,492.697,438.197C492.697,438.197,492.697,438.197,492.697,438.197M141.085,59.084C141.085,59.084,48.782,48.784,48.782,48.784C48.782,48.784,59.082,141.087,59.082,141.087C59.082,141.087,294.49,376.595,294.49,376.595C294.49,376.595,376.593,294.492,376.593,294.492C376.593,294.492,141.085,59.084,141.085,59.084C141.085,59.084,141.085,59.084,141.085,59.084M458.796,376.695C458.796,376.695,410.494,328.393,410.494,328.393C410.494,328.393,328.392,410.496,328.392,410.496C328.392,410.496,376.693,458.798,376.693,458.798C384.293,466.398,396.694,466.398,404.294,458.798C404.294,458.798,458.796,404.296,458.796,404.296C466.396,396.696,466.396,384.395,458.796,376.695C458.796,376.695,458.796,376.695,458.796,376.695" class="mwv_icon-pen"/><glyph unicode="&#x0057;" d="M476.504,489.452C476.504,489.452,382.313,511.149,382.313,511.149C360.715,516.149,338.717,504.95,330.018,484.552C330.018,484.552,286.522,383.062,286.522,383.062C278.523,364.464,283.923,342.466,299.621,329.667C299.621,329.667,339.617,296.971,339.617,296.971C311.02,244.576,267.824,201.38,215.429,172.883C215.429,172.883,182.733,212.879,182.733,212.879C169.934,228.577,147.936,233.977,129.338,225.978C129.338,225.978,27.748,182.482,27.748,182.482C7.35,173.783,-3.749,151.785,1.151,130.187C1.151,130.187,22.848,35.997,22.848,35.997C27.648,15.099,46.046,0.5,67.444,0.5C312.32,0.4,512,198.68,512,444.856C512,466.254,497.401,484.652,476.504,489.452C476.504,489.452,476.504,489.452,476.504,489.452M69.344,48.395C69.344,48.395,48.446,139.086,48.446,139.086C48.446,139.086,146.636,181.182,146.636,181.182C146.636,181.182,202.331,113.089,202.331,113.089C301.121,159.484,352.916,211.079,399.311,310.069C399.311,310.069,331.218,365.764,331.218,365.764C331.218,365.764,373.314,463.954,373.314,463.954C373.314,463.954,464.005,443.056,464.005,443.056C463.005,225.478,286.922,49.395,69.344,48.395C69.344,48.395,69.344,48.395,69.344,48.395" class="mwv_icon-phone"/><glyph unicode="&#x0058;" d="M508.975,43.623C508.975,43.623,387.581,165.017,387.581,165.017C385.281,167.317,382.281,168.517,379.082,168.517C379.082,168.517,365.882,168.517,365.882,168.517C397.381,205.015,416.48,252.513,416.48,304.51C416.48,419.405,323.384,512.5,208.49,512.5C93.595,512.5,0.5,419.405,0.5,304.51C0.5,189.616,93.595,96.52,208.49,96.52C260.487,96.52,307.985,115.619,344.483,147.118C344.483,147.118,344.483,133.918,344.483,133.918C344.483,130.719,345.783,127.719,347.983,125.419C347.983,125.419,469.377,4.025,469.377,4.025C474.077,-0.675,481.677,-0.675,486.376,4.025C486.376,4.025,508.975,26.624,508.975,26.624C513.675,31.323,513.675,38.923,508.975,43.623C508.975,43.623,508.975,43.623,508.975,43.623M208.49,144.518C120.094,144.518,48.498,216.114,48.498,304.51C48.498,392.906,120.094,464.502,208.49,464.502C296.886,464.502,368.482,392.906,368.482,304.51C368.482,216.114,296.886,144.518,208.49,144.518C208.49,144.518,208.49,144.518,208.49,144.518" class="mwv_icon-search"/><glyph unicode="&#x0059;" d="M490.659,426.722C490.659,426.722,128.249,426.722,128.249,426.722C128.249,426.722,120.492,466.374,120.492,466.374C118.533,476.386,109.758,483.611,99.556,483.611C99.556,483.611,10.667,483.611,10.667,483.611C4.776,483.611,0,478.835,0,472.944C0,472.944,0,451.611,0,451.611C0,445.72,4.776,440.944,10.667,440.944C10.667,440.944,81.991,440.944,81.991,440.944C81.991,440.944,143.852,124.766,143.852,124.766C134.041,114.544,128,100.676,128,85.389C128,53.97,153.47,28.5,184.889,28.5C216.308,28.5,241.778,53.97,241.778,85.389C241.788,95.377,239.156,105.191,234.148,113.833C234.148,113.833,363.186,113.833,363.186,113.833C358.178,105.191,355.546,95.377,355.556,85.389C355.556,53.97,381.027,28.5,412.445,28.5C443.864,28.5,469.334,53.97,469.334,85.389C469.334,101.51,462.618,116.052,451.844,126.404C451.844,126.404,452.764,130.632,452.764,130.632C455.657,143.93,445.527,156.5,431.918,156.5C431.918,156.5,181.12,156.5,181.12,156.5C181.12,156.5,172.773,199.167,172.773,199.167C172.773,199.167,450.467,199.167,450.467,199.167C460.502,199.167,469.181,206.161,471.313,215.968C471.313,215.968,511.505,400.857,511.505,400.857C514.395,414.154,504.266,426.722,490.659,426.722C490.659,426.722,490.659,426.722,490.659,426.722M184.889,64.056C173.125,64.056,163.556,73.625,163.556,85.389C163.556,97.152,173.125,106.722,184.889,106.722C196.652,106.722,206.222,97.152,206.222,85.389C206.222,73.625,196.652,64.056,184.889,64.056C184.889,64.056,184.889,64.056,184.889,64.056M412.444,64.056C400.681,64.056,391.111,73.625,391.111,85.389C391.111,97.152,400.681,106.722,412.444,106.722C424.208,106.722,433.778,97.152,433.778,85.389C433.778,73.625,424.208,64.056,412.444,64.056C412.444,64.056,412.444,64.056,412.444,64.056M433.278,241.833C433.278,241.833,164.427,241.833,164.427,241.833C164.427,241.833,136.596,384.055,136.596,384.055C136.596,384.055,464.194,384.055,464.194,384.055C464.194,384.055,433.278,241.833,433.278,241.833C433.278,241.833,433.278,241.833,433.278,241.833" class="mwv_icon-shopping-cart"/><glyph unicode="&#x005a;" d="M416,64C416,64,332,64,332,64C325.4,64,320,69.4,320,76C320,76,320,100,320,100C320,106.6,325.4,112,332,112C332,112,416,112,416,112C442.5,112,464,133.5,464,160C464,160,464,352,464,352C464,378.5,442.5,400,416,400C416,400,332,400,332,400C325.4,400,320,405.4,320,412C320,412,320,436,320,436C320,442.6,325.4,448,332,448C332,448,416,448,416,448C469,448,512,405,512,352C512,352,512,160,512,160C512,107,469,64,416,64C416,64,416,64,416,64M167.1,428.5C167.1,428.5,147.5,408.9,147.5,408.9C142.7,404.1,142.8,396.4,147.7,391.8C147.7,391.8,260.8,282,260.8,282C260.8,282,12,282,12,282C5.4,282,0,276.6,0,270C0,270,0,242,0,242C0,235.4,5.4,230,12,230C12,230,260.8,230,260.8,230C260.8,230,147.7,120.3,147.7,120.3C142.9,115.6,142.8,107.9,147.5,103.2C147.5,103.2,167.1,83.6,167.1,83.6C171.8,78.9,179.4,78.9,184.1,83.6C184.1,83.6,348.5,247.6,348.5,247.6C353.2,252.3,353.2,259.9,348.5,264.6C348.5,264.6,184.1,428.6,184.1,428.6C179.4,433.2,171.8,433.2,167.1,428.5C167.1,428.5,167.1,428.5,167.1,428.5" class="mwv_icon-sign-in"/><glyph unicode="&#x0061;" d="M96.495,448.481C96.495,448.481,180.491,448.481,180.491,448.481C187.091,448.481,192.491,443.082,192.491,436.482C192.491,436.482,192.491,412.483,192.491,412.483C192.491,405.883,187.091,400.484,180.491,400.484C180.491,400.484,96.495,400.484,96.495,400.484C69.997,400.484,48.498,378.985,48.498,352.486C48.498,352.486,48.498,160.495,48.498,160.495C48.498,133.997,69.997,112.498,96.495,112.498C96.495,112.498,180.491,112.498,180.491,112.498C187.091,112.498,192.491,107.098,192.491,100.498C192.491,100.498,192.491,76.499,192.491,76.499C192.491,69.9,187.091,64.5,180.491,64.5C180.491,64.5,96.495,64.5,96.495,64.5C43.498,64.5,0.5,107.498,0.5,160.495C0.5,160.495,0.5,352.486,0.5,352.486C0.5,405.483,43.498,448.481,96.495,448.481C96.495,448.481,96.495,448.481,96.495,448.481M327.584,428.982C327.584,428.982,307.985,409.383,307.985,409.383C303.185,404.583,303.285,396.884,308.185,392.284C308.185,392.284,421.279,282.489,421.279,282.489C421.279,282.489,172.492,282.489,172.492,282.489C165.892,282.489,160.492,277.09,160.492,270.49C160.492,270.49,160.492,242.491,160.492,242.491C160.492,235.892,165.892,230.492,172.492,230.492C172.492,230.492,421.279,230.492,421.279,230.492C421.279,230.492,308.185,120.797,308.185,120.797C303.385,116.097,303.285,108.398,307.985,103.698C307.985,103.698,327.584,84.099,327.584,84.099C332.284,79.399,339.883,79.399,344.583,84.099C344.583,84.099,508.975,248.091,508.975,248.091C513.675,252.791,513.675,260.39,508.975,265.09C508.975,265.09,344.583,429.082,344.583,429.082C339.883,433.682,332.284,433.682,327.584,428.982C327.584,428.982,327.584,428.982,327.584,428.982" class="mwv_icon-sign-out"/><glyph unicode="&#x0062;" d="M465.696,333.321C465.696,333.321,465.696,307.653,465.696,307.653C465.696,300.13,459.596,294.03,452.073,294.03C452.073,294.03,331.171,294.03,331.171,294.03C323.648,294.03,317.548,300.13,317.548,307.653C317.548,307.653,317.548,333.321,317.548,333.321C317.548,340.845,323.648,346.945,331.171,346.945C331.171,346.945,361.952,346.945,361.952,346.945C361.952,436.17,361.948,429.954,361.961,431.905C361.039,430.983,361.243,431.198,355.142,425.665C349.629,420.664,341.123,421.014,336.039,426.45C336.039,426.45,318.83,444.851,318.83,444.851C313.696,450.341,313.978,458.951,319.461,464.093C319.461,464.093,366.612,508.314,366.612,508.314C369.137,510.682,372.469,512,375.932,512C375.932,512,407.377,512,407.377,512C414.9,512,421,505.9,421,498.377C421,498.377,421,346.946,421,346.946C421,346.946,452.074,346.946,452.074,346.946C459.598,346.945,465.696,340.845,465.696,333.321C465.696,333.321,465.696,333.321,465.696,333.321M366.019,0C352.835,0,339.085,1.722,326.445,6.129C319.563,8.529,315.914,16.056,318.094,23.01C318.094,23.01,326.434,49.626,326.434,49.626C328.678,56.791,336.271,60.952,343.449,58.753C365.788,51.912,386.987,56.204,398.505,77.067C350.343,62.524,305.143,98.162,305.143,149.896C305.143,186.198,331.695,224.78,380.903,224.78C428.677,224.78,470.09,187.501,470.09,120.416C470.09,57.562,430.486,0,366.019,0C366.019,0,366.019,0,366.019,0M364.432,150.187C364.432,137.568,371.52,124.084,391.412,124.084C402.73,124.084,408.468,126.778,408.468,132.091C408.468,154.954,392.413,168.994,380.903,168.994C370.204,168.994,364.432,159.304,364.432,150.187C364.432,150.187,364.432,150.187,364.432,150.187M56.13,403.015C56.13,403.015,106.074,403.015,106.074,403.015C106.074,403.015,106.074,17.029,106.074,17.029C106.074,9.505,112.174,3.406,119.697,3.406C119.697,3.406,146.943,3.406,146.943,3.406C154.467,3.406,160.566,9.505,160.566,17.029C160.566,17.029,160.566,403.015,160.566,403.015C160.566,403.015,210.51,403.015,210.51,403.015C222.521,403.015,228.549,417.378,220.413,425.992C220.413,425.992,143.224,507.731,143.224,507.731C137.849,513.424,128.788,513.419,123.416,507.731C123.416,507.731,46.226,425.992,46.226,425.992C38.098,417.385,44.111,403.015,56.13,403.015C56.13,403.015,56.13,403.015,56.13,403.015" class="mwv_icon-sort-numeric-up"/><glyph unicode="&#x0063;" d="M475.771,396.464C478.872,393.363,483.972,393.363,487.073,396.464C487.073,396.464,509.675,419.066,509.675,419.066C512.775,422.166,512.775,427.267,509.675,430.367C509.675,430.367,430.567,509.675,430.567,509.675C427.467,512.775,422.366,512.775,419.266,509.675C419.266,509.675,396.564,486.973,396.564,486.973C393.463,483.872,393.463,478.772,396.564,475.671C396.564,475.671,419.166,453.069,419.166,453.069C419.166,453.069,385.263,419.166,385.263,419.166C385.263,419.166,317.356,486.973,317.356,486.973C314.256,490.073,309.155,490.073,306.055,486.973C306.055,486.973,283.453,464.37,283.453,464.37C280.352,461.27,280.352,456.17,283.453,453.069C283.453,453.069,294.754,441.768,294.754,441.768C294.754,441.768,78.933,225.847,78.933,225.847C59.931,206.845,50.73,180.643,53.73,153.84C53.73,153.84,61.531,83.933,61.531,83.933C61.531,83.933,2.325,24.927,2.325,24.927C-0.775,21.827,-0.775,16.727,2.325,13.626C2.325,13.626,13.626,2.325,13.626,2.325C16.727,-0.775,21.827,-0.775,24.927,2.325C24.927,2.325,84.033,61.331,84.033,61.331C158.841,53.03,157.04,53.03,163.841,53.03C187.043,53.03,209.245,62.131,225.947,78.833C225.947,78.833,441.768,294.654,441.768,294.654C441.768,294.654,453.069,283.353,453.069,283.353C456.17,280.252,461.27,280.252,464.37,283.353C464.37,283.353,487.073,305.955,487.073,305.955C490.173,309.055,490.173,314.156,487.073,317.256C487.073,317.256,419.166,385.163,419.166,385.163C419.166,385.163,453.069,419.066,453.069,419.066C453.069,419.066,475.771,396.464,475.771,396.464C475.771,396.464,475.771,396.464,475.771,396.464M192.044,112.736C183.443,104.035,171.442,99.835,159.341,101.235C159.341,101.235,107.135,107.035,107.135,107.035C107.135,107.035,101.335,159.141,101.335,159.141C100.035,171.342,104.235,183.243,112.836,191.844C112.836,191.844,125.037,204.045,125.037,204.045C125.037,204.045,153.34,175.742,153.34,175.742C159.541,169.542,169.742,169.542,175.942,175.742C175.942,175.742,187.243,187.043,187.243,187.043C193.444,193.244,193.444,203.445,187.243,209.645C187.243,209.645,158.941,237.948,158.941,237.948C158.941,237.948,192.844,271.852,192.844,271.852C192.844,271.852,221.147,243.549,221.147,243.549C227.347,237.348,237.548,237.348,243.749,243.549C243.749,243.549,255.05,254.85,255.05,254.85C261.251,261.05,261.251,271.251,255.05,277.452C255.05,277.452,226.847,305.955,226.847,305.955C226.847,305.955,260.75,339.858,260.75,339.858C260.75,339.858,289.053,311.555,289.053,311.555C295.254,305.355,305.455,305.355,311.655,311.555C311.655,311.555,323.057,322.957,323.057,322.957C329.257,329.157,329.257,339.358,323.057,345.559C323.057,345.559,294.754,373.862,294.754,373.862C294.754,373.862,328.657,407.765,328.657,407.765C328.657,407.765,407.865,328.557,407.865,328.557C407.865,328.557,192.044,112.736,192.044,112.736C192.044,112.736,192.044,112.736,192.044,112.736" class="mwv_icon-syringe"/><glyph unicode="&#x0064;" d="M436,512C436,512,373,512,373,512C362.3,512,357,499.1,364.5,491.5C364.5,491.5,379,477,379,477C379,477,291.4,389.4,291.4,389.4C267.9,406.1,239.1,416,208,416C128.5,416,64,351.5,64,272C64,200.6,115.9,141.4,184,130C184,130,184,96,184,96C184,96,140,96,140,96C133.4,96,128,90.6,128,84C128,84,128,60,128,60C128,53.4,133.4,48,140,48C140,48,184,48,184,48C184,48,184,12,184,12C184,5.4,189.4,0,196,0C196,0,220,0,220,0C226.6,0,232,5.4,232,12C232,12,232,48,232,48C232,48,276,48,276,48C282.6,48,288,53.4,288,60C288,60,288,84,288,84C288,90.6,282.6,96,276,96C276,96,232,96,232,96C232,96,232,130,232,130C300.1,141.4,352,200.6,352,272C352,303.1,342.1,331.9,325.4,355.4C325.4,355.4,413,443,413,443C413,443,427.5,428.5,427.5,428.5C435.1,420.9,448,426.3,448,437C448,437,448,500,448,500C448,506.6,442.6,512,436,512C436,512,436,512,436,512M208,176C155.1,176,112,219.1,112,272C112,324.9,155.1,368,208,368C260.9,368,304,324.9,304,272C304,219.1,260.9,176,208,176C208,176,208,176,208,176" class="mwv_icon-transgender"/><glyph unicode="&#x0065;" d="M459.372,360.704C459.697,356.156,459.697,351.607,459.697,347.059C459.697,208.339,354.113,48.5,161.138,48.5C101.685,48.5,46.457,65.719,0,95.606C8.447,94.632,16.568,94.307,25.34,94.307C74.395,94.307,119.553,110.875,155.615,139.139C109.482,140.114,70.822,170.327,57.502,211.912C64,210.938,70.497,210.288,77.32,210.288C86.741,210.288,96.163,211.588,104.934,213.861C56.853,223.608,20.791,265.841,20.791,316.846C20.791,316.846,20.791,318.145,20.791,318.145C34.76,310.348,51.005,305.475,68.222,304.826C39.958,323.669,21.441,355.831,21.441,392.217C21.441,411.709,26.638,429.577,35.735,445.172C87.39,381.496,165.036,339.913,252.101,335.364C250.477,343.161,249.502,351.282,249.502,359.404C249.502,417.232,296.284,464.339,354.436,464.339C384.65,464.339,411.939,451.669,431.107,431.201C454.822,435.75,477.563,444.522,497.706,456.542C489.908,432.175,473.34,411.708,451.574,398.714C472.691,400.987,493.158,406.836,512,414.957C497.708,394.166,479.839,375.649,459.372,360.704C459.372,360.704,459.372,360.704,459.372,360.704" class="mwv_icon-twitter"/><glyph unicode="&#x0066;" d="M0,256C0,397.385,114.615,512,256,512C397.385,512,512,397.385,512,256C512,114.615,397.385,0,256,0C114.615,0,0,114.615,0,256C0,256,0,256,0,256M74.792,126.072C115.259,69.733,181.34,33.032,256,33.032C330.66,33.032,396.741,69.733,437.208,126.072C433.965,153.932,413.81,177.321,386.072,184.256C386.072,184.256,352.653,192.61,352.653,192.61C325.745,169.507,291.842,156.903,256,156.903C220.158,156.903,186.255,169.507,159.346,192.61C159.346,192.61,125.927,184.256,125.927,184.256C98.19,177.321,78.035,153.932,74.792,126.072C74.792,126.072,74.792,126.072,74.792,126.072M140.387,305.548C140.387,241.697,192.149,189.935,256,189.935C319.851,189.935,371.613,241.697,371.613,305.548C371.613,369.4,319.851,421.161,256,421.161C192.149,421.161,140.387,369.4,140.387,305.548C140.387,305.548,140.387,305.548,140.387,305.548" class="mwv_icon-user-circle"/><glyph unicode="&#x0067;" d="M271.059,349.147C271.059,377.853,258.918,441.194,256.376,454.276C251.765,478.465,229.741,497.382,198.212,497.382C187.482,497.382,176.471,495.124,166.871,490.041C157.459,495.029,146.353,497.382,135.529,497.382C124.706,497.382,113.6,495.029,104.188,490.041C94.682,495.124,83.576,497.382,72.847,497.382C41.506,497.382,19.294,478.653,14.682,454.276C12.141,441.288,0,377.947,0,349.147C0,299.547,26.541,259.924,65.694,239.312C65.694,239.312,56.094,69.241,56.094,69.241C54.4,40.065,77.835,15.5,107.294,15.5C107.294,15.5,163.765,15.5,163.765,15.5C193.224,15.5,216.659,40.065,214.965,69.241C214.965,69.241,205.365,239.406,205.365,239.406C244.329,259.829,271.059,299.453,271.059,349.147C271.059,349.147,271.059,349.147,271.059,349.147M158.4,270.465C158.4,270.465,169.882,66.7,169.882,66.7C170.071,63.5,167.341,60.676,163.765,60.676C163.765,60.676,107.294,60.676,107.294,60.676C103.812,60.676,100.988,63.406,101.176,66.7C101.176,66.7,112.659,270.465,112.659,270.465C72.753,278.088,45.176,307.924,45.176,349.147C45.176,375.124,59.106,445.806,59.106,445.806C60.612,454.465,85.741,454.276,86.871,445.618C86.871,445.618,86.871,338.606,86.871,338.606C87.718,328.629,113.412,328.441,114.635,338.418C114.635,338.418,121.6,445.806,121.6,445.806C123.106,454.276,147.859,454.276,149.365,445.806C149.365,445.806,156.329,338.418,156.329,338.418C157.553,328.441,183.247,328.629,184.094,338.606C184.094,338.606,184.094,445.618,184.094,445.618C185.224,454.276,210.353,454.465,211.859,445.806C211.859,445.806,225.788,375.124,225.788,349.147C225.882,308.112,198.494,278.182,158.4,270.465C158.4,270.465,158.4,270.465,158.4,270.465M366.588,205.053C366.588,205.053,354.071,70.935,354.071,70.935C351.341,41.194,375.435,15.5,406.588,15.5C406.588,15.5,459.294,15.5,459.294,15.5C488.376,15.5,512,38.276,512,66.324C512,66.324,512,446.559,512,446.559C512,474.606,488.376,497.382,459.294,497.382C391.718,497.382,301.176,419.265,301.176,326.371C301.176,269.524,334.118,231.124,366.588,205.053C366.588,205.053,366.588,205.053,366.588,205.053M346.353,326.371C346.353,394.7,417.318,452.206,459.294,452.206C463.341,452.206,466.824,449.571,466.824,446.559C466.824,446.559,466.824,66.324,466.824,66.324C466.824,63.218,463.341,60.676,459.294,60.676C459.294,60.676,406.588,60.676,406.588,60.676C402.259,60.676,398.776,63.5,399.059,66.7C399.059,66.7,413.929,226.229,413.929,226.229C376.659,251.641,346.353,281.759,346.353,326.371C346.353,326.371,346.353,326.371,346.353,326.371" class="mwv_icon-utensils"/><glyph unicode="&#x0068;" d="M483.467,398.389C477.956,398.389,472.356,396.789,467.289,393.322C467.289,393.322,369.778,332.522,369.778,332.522C369.778,332.522,369.778,384.344,369.778,384.344C369.778,407.811,349.156,426.833,323.733,426.833C323.733,426.833,46.044,426.833,46.044,426.833C20.622,426.833,0,407.811,0,384.344C0,384.344,0,127.989,0,127.989C0,104.522,20.622,85.5,46.044,85.5C46.044,85.5,323.733,85.5,323.733,85.5C349.156,85.5,369.778,104.522,369.778,127.989C369.778,127.989,369.778,179.811,369.778,179.811C369.778,179.811,467.289,119.1,467.289,119.1C472.356,115.544,478.044,114.033,483.467,114.033C498.222,114.033,512,125.589,512,142.033C512,142.033,512,370.389,512,370.389C512,386.833,498.222,398.389,483.467,398.389C483.467,398.389,483.467,398.389,483.467,398.389M327.111,305.944C327.111,305.944,327.111,129.144,327.111,129.144C326.578,128.789,325.511,128.167,323.733,128.167C323.733,128.167,46.044,128.167,46.044,128.167C44.267,128.167,43.2,128.7,42.667,129.144C42.667,129.144,42.667,383.189,42.667,383.189C43.2,383.544,44.267,384.167,46.044,384.167C46.044,384.167,323.733,384.167,323.733,384.167C325.511,384.167,326.578,383.633,327.111,383.189C327.111,383.189,327.111,305.944,327.111,305.944C327.111,305.944,327.111,305.944,327.111,305.944M469.333,167.989C469.333,167.989,369.778,230.033,369.778,230.033C369.778,230.033,369.778,282.211,369.778,282.211C369.778,282.211,469.333,344.256,469.333,344.256C469.333,344.256,469.333,167.989,469.333,167.989C469.333,167.989,469.333,167.989,469.333,167.989" class="mwv_icon-video"/><glyph unicode="&#x0069;" d="M256,512C114.787,512,0,397.213,0,256C0,114.787,114.787,0,256,0C397.213,0,512,114.787,512,256C512,397.213,397.213,512,256,512C256,512,256,512,256,512M407.329,116.026C329.6,102.916,249.806,120.671,184.671,165.368C205.11,189.729,229.574,210.684,257.239,227.613C355.303,174.555,440.361,186.219,450.374,187.045C440.877,160.413,426.116,136.361,407.329,116.026C407.329,116.026,407.329,116.026,407.329,116.026M461.523,237.935C442.013,235.252,422.4,234.323,402.89,235.561C408.671,306.168,392.258,376.258,356.439,436.232C386.168,419.51,471.948,357.161,461.523,237.935C461.523,237.935,461.523,237.935,461.523,237.935M301.316,457.29C351.69,396.49,376.258,318.348,370.168,239.484C338.994,244.955,308.645,255.587,280.258,270.968C278.4,338.787,256.929,403.613,218.426,458.839C230.813,461.11,260.852,466.374,301.316,457.29C301.316,457.29,301.316,457.29,301.316,457.29M168.981,442.942C181.058,427.355,191.587,410.839,200.258,393.497C136.258,363.252,83.716,314.013,49.652,252.903C48.31,343.019,103.329,412.284,168.981,442.942C168.981,442.942,168.981,442.942,168.981,442.942M58.942,194.374C86.4,268.49,141.729,328.981,213.161,363.148C224,333.419,229.987,301.832,230.813,269.523C173.006,234.013,127.587,183.019,99.097,122.116C81.239,143.071,67.406,167.535,58.942,194.374C58.942,194.374,58.942,194.374,58.942,194.374M137.6,87.123C144.929,105.29,154.013,122.426,164.542,138.632C199.329,114.581,266.632,77.523,361.497,78.865C330.529,60.387,294.606,49.548,256,49.548C211.923,49.548,171.148,63.587,137.6,87.123C137.6,87.123,137.6,87.123,137.6,87.123" class="mwv_icon-volleyball-ball"/><glyph unicode="&#x006a;" d="M191.137,416.839C191.137,416.839,112.052,337.78,112.052,337.78C112.052,337.78,21.333,337.78,21.333,337.78C9.551,337.78,0,328.229,0,316.446C0,316.446,0,188.446,0,188.446C0,176.664,9.551,167.113,21.333,167.113C21.333,167.113,112.052,167.113,112.052,167.113C112.052,167.113,191.138,88.047,191.138,88.047C204.5,74.684,227.556,84.079,227.556,103.133C227.556,103.133,227.556,401.754,227.556,401.754C227.556,420.701,204.568,430.268,191.137,416.839C191.137,416.839,191.137,416.839,191.137,416.839M184.889,154.616C184.889,154.616,135.974,203.531,135.974,203.531C131.973,207.532,126.547,209.78,120.889,209.78C120.889,209.78,42.667,209.78,42.667,209.78C42.667,209.78,42.667,295.113,42.667,295.113C42.667,295.113,120.889,295.113,120.889,295.113C126.547,295.113,131.973,297.361,135.974,301.361C135.974,301.361,184.889,350.277,184.889,350.277C184.889,350.277,184.889,154.616,184.889,154.616C184.889,154.616,184.889,154.616,184.889,154.616M512,252.446C512,170.861,471.928,94.358,404.807,47.805C395.126,41.092,381.835,43.494,375.12,53.177C368.404,62.859,370.81,76.15,380.492,82.864C436.122,121.449,469.333,184.844,469.333,252.446C469.333,326.877,429.849,392.242,370.524,428.522C360.472,434.669,357.308,447.8,363.454,457.852C369.602,467.904,382.734,471.067,392.784,464.921C464.683,420.951,512,341.851,512,252.446C512,252.446,512,252.446,512,252.446M356.23,117.965C346.55,111.253,333.26,113.653,326.542,123.336C319.827,133.017,322.231,146.309,331.913,153.024C364.528,175.648,384,212.815,384,252.446C384,296.176,360.781,334.444,326.07,355.669C316.019,361.815,312.852,374.947,318.999,384.998C325.146,395.051,338.277,398.216,348.329,392.07C395.773,363.058,426.667,310.963,426.667,252.446C426.667,198.833,400.335,148.559,356.23,117.965C356.23,117.965,356.23,117.965,356.23,117.965M341.333,252.446C341.333,226.798,328.74,202.755,307.648,188.132C297.966,181.421,284.676,183.825,277.962,193.509C271.249,203.193,273.656,216.484,283.34,223.196C292.934,229.845,298.66,240.773,298.667,252.446C298.667,264.937,292.294,276.289,281.621,282.813C271.567,288.957,268.399,302.088,274.544,312.141C280.689,322.193,293.82,325.363,303.871,319.218C327.329,304.881,341.333,279.92,341.333,252.446C341.333,252.446,341.333,252.446,341.333,252.446" class="mwv_icon-volume-up"/><glyph unicode="&#x006b;" d="M501.301,380.172C495.413,402.344,478.063,419.806,456.035,425.731C416.107,436.5,256,436.5,256,436.5C256,436.5,95.894,436.5,55.965,425.731C33.937,419.805,16.587,402.344,10.699,380.172C0,339.984,0,256.136,0,256.136C0,256.136,0,172.288,10.699,132.1C16.587,109.928,33.937,93.194,55.965,87.268C95.894,76.5,256,76.5,256,76.5C256,76.5,416.106,76.5,456.035,87.268C478.063,93.194,495.413,109.928,501.301,132.1C512,172.288,512,256.136,512,256.136C512,256.136,512,339.984,501.301,380.172C501.301,380.172,501.301,380.172,501.301,380.172M203.636,180.008C203.636,180.008,203.636,332.264,203.636,332.264C203.636,332.264,337.454,256.134,337.454,256.134C337.454,256.134,203.636,180.008,203.636,180.008C203.636,180.008,203.636,180.008,203.636,180.008" class="mwv_icon-youtube"/><glyph unicode="&#x006c;" d="M509.223,270.697C509.223,270.697,466.781,305.422,466.781,305.422C466.781,305.422,466.781,399.341,466.781,399.341C466.781,403.481,463.393,406.869,459.253,406.869C459.253,406.869,429.139,406.869,429.139,406.869C424.998,406.869,421.61,403.481,421.61,399.341C421.61,399.341,421.61,342.406,421.61,342.406C421.61,342.406,279.886,458.534,279.886,458.534C266.052,469.921,246.007,469.921,232.174,458.534C232.174,458.534,2.742,270.697,2.742,270.697C-0.458,268.062,-0.928,263.357,1.707,260.063C1.707,260.063,20.81,236.725,20.81,236.725C23.445,233.525,28.151,233.054,31.444,235.689C31.444,235.689,45.278,246.982,45.278,246.982C45.278,246.982,45.278,60.557,45.278,60.557C45.278,52.276,52.054,45.5,60.335,45.5C60.335,45.5,218.434,45.5,218.434,45.5C222.575,45.5,225.963,48.888,225.963,53.029C225.963,53.029,225.963,173.485,225.963,173.485C225.963,173.485,286.191,173.485,286.191,173.485C286.191,173.485,286.191,53.029,286.191,53.029C286.191,48.888,289.579,45.5,293.719,45.5C293.719,45.5,451.818,45.5,451.818,45.5C460.1,45.5,466.875,52.276,466.875,60.557C466.875,60.557,466.875,247.076,466.875,247.076C466.875,247.076,480.709,235.783,480.709,235.783C483.909,233.148,488.708,233.619,491.343,236.819C491.343,236.819,510.447,260.157,510.447,260.157C512.894,263.357,512.423,268.062,509.223,270.697C509.223,270.697,509.223,270.697,509.223,270.697M421.61,90.671C421.61,90.671,331.268,90.671,331.268,90.671C331.268,90.671,331.268,211.128,331.268,211.128C331.268,215.268,327.88,218.656,323.739,218.656C323.739,218.656,188.226,218.656,188.226,218.656C184.085,218.656,180.697,215.268,180.697,211.128C180.697,211.128,180.697,90.671,180.697,90.671C180.697,90.671,90.355,90.671,90.355,90.671C90.355,90.671,90.355,284.06,90.355,284.06C90.355,284.06,251.183,415.809,251.183,415.809C253.912,418.068,257.959,418.068,260.688,415.809C260.688,415.809,421.516,284.06,421.516,284.06C421.516,284.06,421.516,90.671,421.516,90.671C421.516,90.671,421.61,90.671,421.61,90.671" class="mwv_icon-home-regular"/><glyph unicode="&#x006d;" d="M432.5,272.5C432.5,272.5,160.5,272.5,160.5,272.5C160.5,272.5,160.5,367.3,160.5,367.3C160.5,420.1,202.6,464,255.5,464.5C308.9,465.1,352.5,421.8,352.5,368.5C352.5,368.5,352.5,344.5,352.5,344.5C352.5,331.2,363.2,320.5,376.5,320.5C389.8,320.5,400.5,331.2,400.5,344.5C400.5,344.5,400.5,367.1,400.5,367.1C400.5,446.7,336.5,512.3,256.8,512.5C177.3,512.7,112.5,448,112.5,368.5C112.5,368.5,112.5,272.5,112.5,272.5C112.5,272.5,80.5,272.5,80.5,272.5C54,272.5,32.5,251,32.5,224.5C32.5,224.5,32.5,48.5,32.5,48.5C32.5,22,54,0.5,80.5,0.5C80.5,0.5,432.5,0.5,432.5,0.5C459,0.5,480.5,22,480.5,48.5C480.5,48.5,480.5,224.5,480.5,224.5C480.5,251,459,272.5,432.5,272.5C432.5,272.5,432.5,272.5,432.5,272.5M432.5,48.5C432.5,48.5,80.5,48.5,80.5,48.5C80.5,48.5,80.5,224.5,80.5,224.5C80.5,224.5,432.5,224.5,432.5,224.5C432.5,224.5,432.5,48.5,432.5,48.5C432.5,48.5,432.5,48.5,432.5,48.5" class="mwv_icon-unlock-regular"/><glyph unicode="&#x006e;" d="M464,416C464,416,352,416,352,416C352,416,352,432,352,432C352,458.51,330.51,480,304,480C304,480,208,480,208,480C181.49,480,160,458.51,160,432C160,432,160,416,160,416C160,416,48,416,48,416C21.49,416,0,394.51,0,368C0,368,0,80,0,80C0,53.49,21.49,32,48,32C48,32,464,32,464,32C490.51,32,512,53.49,512,80C512,80,512,368,512,368C512,394.51,490.51,416,464,416C464,416,464,416,464,416M208,432C208,432,304,432,304,432C304,432,304,416,304,416C304,416,208,416,208,416C208,416,208,432,208,432C208,432,208,432,208,432M48,362C48,365.314,50.686,368,54,368C54,368,458,368,458,368C461.314,368,464,365.314,464,362C464,362,464,256,464,256C464,256,48,256,48,256C48,256,48,362,48,362C48,362,48,362,48,362M464,86C464,82.686,461.314,80,458,80C458,80,54,80,54,80C50.686,80,48,82.686,48,86C48,86,48,208,48,208C48,208,192,208,192,208C192,208,192,172,192,172C192,165.373,197.373,160,204,160C204,160,308,160,308,160C314.627,160,320,165.373,320,172C320,172,320,208,320,208C320,208,464,208,464,208C464,208,464,86,464,86C464,86,464,86,464,86" class="mwv_icon-briefcase-regular"/><glyph unicode="&#x006f;" d="M256,512C114.581,512,0,397.419,0,256C0,114.581,114.581,0,256,0C397.419,0,512,114.581,512,256C512,397.419,397.419,512,256,512C256,512,256,512,256,512M256,49.548C141.935,49.548,49.548,141.935,49.548,256C49.548,370.065,141.935,462.452,256,462.452C370.065,462.452,462.452,370.065,462.452,256C462.452,141.935,370.065,49.548,256,49.548C256,49.548,256,49.548,256,49.548M319.794,157.316C319.794,157.316,232.155,221.006,232.155,221.006C228.955,223.381,227.097,227.097,227.097,231.019C227.097,231.019,227.097,400.516,227.097,400.516C227.097,407.329,232.671,412.903,239.484,412.903C239.484,412.903,272.516,412.903,272.516,412.903C279.329,412.903,284.903,407.329,284.903,400.516C284.903,400.516,284.903,254.245,284.903,254.245C284.903,254.245,353.858,204.077,353.858,204.077C359.432,200.052,360.568,192.31,356.542,186.735C356.542,186.735,337.135,160,337.135,160C333.11,154.529,325.368,153.29,319.794,157.316C319.794,157.316,319.794,157.316,319.794,157.316" class="mwv_icon-clock-regular"/><glyph unicode="&#x0070;" d="M256,512C114.581,512,0,397.419,0,256C0,114.581,114.581,0,256,0C397.419,0,512,114.581,512,256C512,397.419,397.419,512,256,512C256,512,256,512,256,512M441.084,346.839C441.084,346.839,371.716,346.839,371.716,346.839C364.8,384.516,353.652,417.858,339.51,444.594C383.794,424.981,419.716,390.194,441.084,346.839C441.084,346.839,441.084,346.839,441.084,346.839M256,462.452C275.2,462.452,306.168,419.923,321.239,346.839C321.239,346.839,190.761,346.839,190.761,346.839C205.832,419.923,236.8,462.452,256,462.452C256,462.452,256,462.452,256,462.452M49.548,256C49.548,270.142,50.994,283.974,53.677,297.29C53.677,297.29,133.884,297.29,133.884,297.29C132.852,283.768,132.129,270.142,132.129,256C132.129,241.858,132.852,228.232,133.884,214.71C133.884,214.71,53.677,214.71,53.677,214.71C50.994,228.026,49.548,241.858,49.548,256C49.548,256,49.548,256,49.548,256M70.916,165.161C70.916,165.161,140.284,165.161,140.284,165.161C147.2,127.484,158.348,94.142,172.49,67.406C128.206,87.019,92.284,121.806,70.916,165.161C70.916,165.161,70.916,165.161,70.916,165.161M140.284,346.839C140.284,346.839,70.916,346.839,70.916,346.839C92.284,390.194,128.206,424.981,172.49,444.594C158.348,417.858,147.2,384.516,140.284,346.839C140.284,346.839,140.284,346.839,140.284,346.839M256,49.548C236.8,49.548,205.832,92.077,190.761,165.161C190.761,165.161,321.342,165.161,321.342,165.161C306.168,92.077,275.2,49.548,256,49.548C256,49.548,256,49.548,256,49.548M328.361,214.71C328.361,214.71,183.639,214.71,183.639,214.71C182.503,227.923,181.677,241.548,181.677,256C181.677,270.452,182.503,284.077,183.639,297.29C183.639,297.29,328.465,297.29,328.465,297.29C329.6,284.077,330.426,270.452,330.426,256C330.426,241.548,329.497,227.923,328.361,214.71C328.361,214.71,328.361,214.71,328.361,214.71M339.51,67.406C353.652,94.142,364.697,127.484,371.716,165.161C371.716,165.161,441.084,165.161,441.084,165.161C419.716,121.806,383.794,87.019,339.51,67.406C339.51,67.406,339.51,67.406,339.51,67.406M378.116,214.71C379.148,228.232,379.871,241.858,379.871,256C379.871,270.142,379.148,283.768,378.116,297.29C378.116,297.29,458.323,297.29,458.323,297.29C461.006,283.974,462.452,270.142,462.452,256C462.452,241.858,461.006,228.026,458.323,214.71C458.323,214.71,378.116,214.71,378.116,214.71C378.116,214.71,378.116,214.71,378.116,214.71" class="mwv_icon-globe-regular"/><glyph unicode="&#x0071;" d="M498.441,286.059C498.441,286.059,286.559,497.941,286.559,497.941C277.557,506.943,265.348,512,252.618,512C252.618,512,48.5,512,48.5,512C21.99,512,0.5,490.51,0.5,464C0.5,464,0.5,259.882,0.5,259.882C0.5,247.152,5.557,234.943,14.559,225.941C14.559,225.941,226.441,14.059,226.441,14.059C245.186,-4.686,275.578,-4.687,294.323,14.059C294.323,14.059,498.441,218.177,498.441,218.177C517.186,236.922,517.186,267.314,498.441,286.059C498.441,286.059,498.441,286.059,498.441,286.059M260.386,48.004C260.386,48.004,48.5,259.882,48.5,259.882C48.5,259.882,48.5,464,48.5,464C48.5,464,252.618,464,252.618,464C252.618,464,464.5,252.118,464.5,252.118C464.5,252.118,260.386,48.004,260.386,48.004C260.386,48.004,260.386,48.004,260.386,48.004M192.5,368C192.5,341.49,171.01,320,144.5,320C117.99,320,96.5,341.49,96.5,368C96.5,394.51,117.99,416,144.5,416C171.01,416,192.5,394.51,192.5,368C192.5,368,192.5,368,192.5,368" class="mwv_icon-tag-regular"/><glyph unicode="&#x0072;" d="M256,512.5C149.903,512.5,64,426.486,64,320.5C64,249.383,87.991,227.159,215.271,23.076C234.056,-7.043,277.965,-7.007,296.728,23.076C424.075,227.266,448,249.397,448,320.5C448,426.597,361.986,512.5,256,512.5C256,512.5,256,512.5,256,512.5M256,48.5C128.576,252.814,112,265.712,112,320.5C112,400.029,176.471,464.5,256,464.5C335.529,464.5,400,400.029,400,320.5C400,265.947,384.834,255.075,256,48.5C256,48.5,256,48.5,256,48.5" class="mwv_icon-map-marker-regular"/><glyph unicode="&#x0073;" d="M464,448C464,448,48,448,48,448C21.49,448,0,426.51,0,400C0,400,0,112,0,112C0,85.49,21.49,64,48,64C48,64,464,64,464,64C490.51,64,512,85.49,512,112C512,112,512,400,512,400C512,426.51,490.51,448,464,448C464,448,464,448,464,448M458,112C458,112,54,112,54,112C50.686,112,48,114.686,48,118C48,118,48,394,48,394C48,397.314,50.686,400,54,400C54,400,458,400,458,400C461.314,400,464,397.314,464,394C464,394,464,118,464,118C464,114.686,461.314,112,458,112C458,112,458,112,458,112M128,360C105.909,360,88,342.091,88,320C88,297.909,105.909,280,128,280C150.091,280,168,297.909,168,320C168,342.091,150.091,360,128,360C128,360,128,360,128,360M96,160C96,160,416,160,416,160C416,160,416,240,416,240C416,240,328.485,327.515,328.485,327.515C323.799,332.201,316.201,332.201,311.514,327.515C311.514,327.515,192,208,192,208C192,208,152.485,247.515,152.485,247.515C147.799,252.201,140.201,252.201,135.514,247.515C135.514,247.515,96,208,96,208C96,208,96,160,96,160C96,160,96,160,96,160" class="mwv_icon-image"/><glyph unicode="&#x0074;" d="M490.667,426.833C490.667,426.833,99.556,426.833,99.556,426.833C81.015,426.833,65.206,414.943,59.335,398.389C59.335,398.389,21.333,398.389,21.333,398.389C9.551,398.389,0,388.838,0,377.056C0,377.056,0,135.278,0,135.278C0,107.786,22.286,85.5,49.778,85.5C49.778,85.5,490.667,85.5,490.667,85.5C502.449,85.5,512,95.051,512,106.833C512,106.833,512,405.5,512,405.5C512,417.282,502.449,426.833,490.667,426.833C490.667,426.833,490.667,426.833,490.667,426.833M42.667,135.278C42.667,135.278,42.667,355.722,42.667,355.722C42.667,355.722,56.889,355.722,56.889,355.722C56.889,355.722,56.889,135.278,56.889,135.278C56.889,131.357,53.699,128.167,49.778,128.167C45.857,128.167,42.667,131.357,42.667,135.278C42.667,135.278,42.667,135.278,42.667,135.278M469.333,128.167C469.333,128.167,99.042,128.167,99.042,128.167C99.374,130.49,99.556,132.863,99.556,135.278C99.556,135.278,99.556,384.167,99.556,384.167C99.556,384.167,469.333,384.167,469.333,384.167C469.333,384.167,469.333,128.167,469.333,128.167C469.333,128.167,469.333,128.167,469.333,128.167M152.889,234.833C152.889,234.833,273.778,234.833,273.778,234.833C279.668,234.833,284.444,239.609,284.444,245.5C284.444,245.5,284.444,330.833,284.444,330.833C284.444,336.724,279.668,341.5,273.778,341.5C273.778,341.5,152.889,341.5,152.889,341.5C146.998,341.5,142.222,336.724,142.222,330.833C142.222,330.833,142.222,245.5,142.222,245.5C142.222,239.609,146.998,234.833,152.889,234.833C152.889,234.833,152.889,234.833,152.889,234.833M177.778,305.944C177.778,305.944,248.889,305.944,248.889,305.944C248.889,305.944,248.889,270.389,248.889,270.389C248.889,270.389,177.778,270.389,177.778,270.389C177.778,270.389,177.778,305.944,177.778,305.944C177.778,305.944,177.778,305.944,177.778,305.944M142.222,181.5C142.222,181.5,142.222,202.833,142.222,202.833C142.222,208.724,146.998,213.5,152.889,213.5C152.889,213.5,273.778,213.5,273.778,213.5C279.668,213.5,284.444,208.724,284.444,202.833C284.444,202.833,284.444,181.5,284.444,181.5C284.444,175.609,279.668,170.833,273.778,170.833C273.778,170.833,152.889,170.833,152.889,170.833C146.998,170.833,142.222,175.609,142.222,181.5C142.222,181.5,142.222,181.5,142.222,181.5M312.889,181.5C312.889,181.5,312.889,202.833,312.889,202.833C312.889,208.724,317.665,213.5,323.556,213.5C323.556,213.5,416,213.5,416,213.5C421.891,213.5,426.667,208.724,426.667,202.833C426.667,202.833,426.667,181.5,426.667,181.5C426.667,175.609,421.891,170.833,416,170.833C416,170.833,323.556,170.833,323.556,170.833C317.665,170.833,312.889,175.609,312.889,181.5C312.889,181.5,312.889,181.5,312.889,181.5M312.889,309.5C312.889,309.5,312.889,330.833,312.889,330.833C312.889,336.724,317.665,341.5,323.556,341.5C323.556,341.5,416,341.5,416,341.5C421.891,341.5,426.667,336.724,426.667,330.833C426.667,330.833,426.667,309.5,426.667,309.5C426.667,303.609,421.891,298.833,416,298.833C416,298.833,323.556,298.833,323.556,298.833C317.665,298.833,312.889,303.609,312.889,309.5C312.889,309.5,312.889,309.5,312.889,309.5M312.889,245.5C312.889,245.5,312.889,266.833,312.889,266.833C312.889,272.724,317.665,277.5,323.556,277.5C323.556,277.5,416,277.5,416,277.5C421.891,277.5,426.667,272.724,426.667,266.833C426.667,266.833,426.667,245.5,426.667,245.5C426.667,239.609,421.891,234.833,416,234.833C416,234.833,323.556,234.833,323.556,234.833C317.665,234.833,312.889,239.609,312.889,245.5C312.889,245.5,312.889,245.5,312.889,245.5" class="mwv_icon-newspaper"/><glyph unicode="&#x0075;" d="M455.111,426.722C455.111,426.722,327.111,426.722,327.111,426.722C327.111,426.722,327.111,455.167,327.111,455.167C327.111,470.9,314.4,483.611,298.667,483.611C298.667,483.611,213.333,483.611,213.333,483.611C197.6,483.611,184.889,470.9,184.889,455.167C184.889,455.167,184.889,426.722,184.889,426.722C184.889,426.722,56.889,426.722,56.889,426.722C25.511,426.722,0,401.211,0,369.833C0,369.833,0,85.389,0,85.389C0,54.011,25.511,28.5,56.889,28.5C56.889,28.5,455.111,28.5,455.111,28.5C486.489,28.5,512,54.011,512,85.389C512,85.389,512,369.833,512,369.833C512,401.211,486.489,426.722,455.111,426.722C455.111,426.722,455.111,426.722,455.111,426.722M227.556,440.944C227.556,440.944,284.444,440.944,284.444,440.944C284.444,440.944,284.444,384.056,284.444,384.056C284.444,384.056,227.556,384.056,227.556,384.056C227.556,384.056,227.556,440.944,227.556,440.944C227.556,440.944,227.556,440.944,227.556,440.944M469.333,85.389C469.333,77.567,462.933,71.167,455.111,71.167C455.111,71.167,354.844,71.167,354.844,71.167C355.022,72.144,355.556,73.033,355.556,74.011C355.556,74.011,355.556,91.078,355.556,91.078C355.556,119.344,328.8,142.278,295.822,142.278C286.222,142.278,279.2,135.167,256,135.167C232.089,135.167,226.311,142.278,216.178,142.278C183.2,142.278,156.444,119.344,156.444,91.078C156.444,91.078,156.444,74.011,156.444,74.011C156.444,73.033,156.889,72.144,157.156,71.167C157.156,71.167,56.889,71.167,56.889,71.167C49.067,71.167,42.667,77.567,42.667,85.389C42.667,85.389,42.667,369.833,42.667,369.833C42.667,377.656,49.067,384.056,56.889,384.056C56.889,384.056,184.889,384.056,184.889,384.056C184.889,384.056,184.889,341.389,184.889,341.389C184.889,341.389,327.111,341.389,327.111,341.389C327.111,341.389,327.111,384.056,327.111,384.056C327.111,384.056,455.111,384.056,455.111,384.056C462.933,384.056,469.333,377.656,469.333,369.833C469.333,369.833,469.333,85.389,469.333,85.389C469.333,85.389,469.333,85.389,469.333,85.389M256,284.5C224.622,284.5,199.111,258.989,199.111,227.611C199.111,196.233,224.622,170.722,256,170.722C287.378,170.722,312.889,196.233,312.889,227.611C312.889,258.989,287.378,284.5,256,284.5C256,284.5,256,284.5,256,284.5" class="mwv_icon-id-card-alt-regular"/></font>
</defs>
</svg>
